<?xml version="1.0" encoding="utf-8"?>
<!-- Generator: Adobe Illustrator 27.5.0, SVG Export Plug-In . SVG Version: 6.00 Build 0)  -->
<svg version="1.1" id="Layer_1" xmlns="http://www.w3.org/2000/svg" xmlns:xlink="http://www.w3.org/1999/xlink" x="0px" y="0px"
	 viewBox="0 0 3000 2000" style="enable-background:new 0 0 3000 2000;" xml:space="preserve">
<rect style="fill:#FFFFFF;" width="3000" height="2000"/>
<path style="fill:#F6F9FF;" d="M1959.575,188.262c-149.684-12.949-308.413,18.607-427.615,105.649
	c-73.754,53.856-124.061,139.424-213.493,170.526c-72.486,25.209-151.924,7.032-227.014-8.817
	c-215.399-45.464-454.228-6.811-613.788,154.114C286.75,802.285,272.891,1101.487,334.8,1350.374
	c34.283,137.825,113.218,265.081,245.773,324.264c212.983,95.092,448.617,33.358,662.552-22.735
	c126.917-33.277,256.122-60.946,387.363-69.066c131.013-8.106,262.298,5.53,393.182,10.356
	c302.052,11.139,642.575-87.974,689.341-431.982c28.782-211.723-50.893-446.508-170.823-619.439
	c-105.184-151.668-258.633-271.746-435.241-325.377C2060.13,202.178,2010.374,192.657,1959.575,188.262z"/>
<g>
	<path style="fill:#EAF2FC;" d="M820.64,1200.853c-120.429,0-218.406-97.977-218.406-218.407s97.977-218.407,218.406-218.407
		c120.43,0,218.407,97.977,218.407,218.407S941.07,1200.853,820.64,1200.853z M1201.745,922.778h-59.502
		c-8.278-45.146-25.934-87.771-52.003-125.547l42.074-42.074c5.296-5.296,5.296-13.883,0-19.179l-65.204-65.204
		c-5.296-5.296-13.883-5.296-19.179,0l-42.075,42.075c-37.776-26.07-80.401-43.726-125.547-52.004v-59.502
		c0-7.49-6.071-13.562-13.562-13.562h-92.212c-7.49,0-13.562,6.072-13.562,13.562v59.502
		c-45.145,8.278-87.771,25.934-125.547,52.004l-42.075-42.074c-5.296-5.296-13.883-5.296-19.179,0l-65.204,65.204
		c-5.296,5.296-5.296,13.883,0,19.179l42.074,42.074c-26.069,37.776-43.725,80.401-52.003,125.547h-59.502
		c-7.49,0-13.562,6.072-13.562,13.562v92.213c0,7.49,6.072,13.562,13.562,13.562h59.502c8.278,45.146,25.934,87.771,52.003,125.547
		l-42.074,42.074c-5.296,5.296-5.296,13.883,0,19.179l65.204,65.204c5.296,5.296,13.883,5.296,19.179,0l42.075-42.074
		c37.776,26.07,80.401,43.726,125.547,52.004v59.502c0,7.49,6.072,13.562,13.562,13.562h92.212c7.49,0,13.562-6.072,13.562-13.562
		v-59.502c45.146-8.278,87.771-25.934,125.547-52.004l42.075,42.075c5.296,5.296,13.883,5.296,19.179,0l65.204-65.204
		c5.296-5.296,5.296-13.883,0-19.179l-42.074-42.074c26.07-37.776,43.726-80.401,52.003-125.547h59.502
		c7.49,0,13.562-6.072,13.562-13.562V936.34C1215.306,928.85,1209.235,922.778,1201.745,922.778z"/>
</g>
<g>
	<path style="fill:#EAF2FC;" d="M1881.523,1386.688c-44.576,0-80.842-36.266-80.842-80.842c0-44.576,36.266-80.842,80.842-80.842
		c44.576,0,80.842,36.266,80.842,80.842C1962.365,1350.422,1926.1,1386.688,1881.523,1386.688z M2022.587,1283.76h-22.024
		c-3.064-16.711-9.599-32.488-19.249-46.471l15.573-15.574c1.96-1.96,1.96-5.139,0-7.099l-24.135-24.135
		c-1.96-1.96-5.138-1.96-7.099,0l-15.574,15.574c-13.983-9.65-29.76-16.185-46.471-19.249v-22.024c0-2.772-2.247-5.02-5.02-5.02
		h-34.132c-2.772,0-5.02,2.247-5.02,5.02v22.024c-16.71,3.064-32.488,9.599-46.471,19.249l-15.574-15.574
		c-1.96-1.96-5.139-1.96-7.099,0l-24.135,24.135c-1.96,1.96-1.96,5.139,0,7.099l15.573,15.574
		c-9.649,13.983-16.185,29.76-19.249,46.471h-22.024c-2.772,0-5.02,2.248-5.02,5.02v34.132c0,2.772,2.248,5.02,5.02,5.02h22.024
		c3.064,16.711,9.599,32.488,19.249,46.471l-15.573,15.574c-1.96,1.96-1.96,5.139,0,7.099l24.135,24.135
		c1.96,1.96,5.139,1.96,7.099,0l15.574-15.574c13.983,9.65,29.76,16.185,46.471,19.249v22.024c0,2.772,2.247,5.02,5.02,5.02h34.132
		c2.772,0,5.02-2.247,5.02-5.02v-22.024c16.711-3.064,32.488-9.599,46.471-19.249l15.574,15.574c1.96,1.96,5.139,1.96,7.099,0
		l24.135-24.135c1.96-1.96,1.96-5.139,0-7.099l-15.573-15.574c9.65-13.983,16.185-29.76,19.249-46.471h22.024
		c2.772,0,5.02-2.247,5.02-5.02v-34.132C2027.607,1286.007,2025.36,1283.76,2022.587,1283.76z"/>
</g>
<g>
	<defs>
		<path id="XMLID_358_" d="M1088.696,1583.809c0,0,11.324,81.871,48.928,136.419c-24.908-23.873-75.878-61.24-171.77-92.716
			c0,0,28.549,92.519,112.785,141.246c-28.214-7.704-65.829-14.851-112.785-17.222c0,0,62.603,86.653,148.828,97.07h163.001
			C1277.683,1848.606,1279.27,1653.476,1088.696,1583.809z"/>
	</defs>
	<use xlink:href="#XMLID_358_"  style="overflow:visible;fill:#6880E4;"/>
	<clipPath id="XMLID_00000176724911891772560930000002262043726976330923_">
		<use xlink:href="#XMLID_358_"  style="overflow:visible;"/>
	</clipPath>
	<path style="clip-path:url(#XMLID_00000176724911891772560930000002262043726976330923_);fill:#D4DFFF;" d="M1256.663,1861.56
		c-0.407,0-0.79-0.25-0.938-0.654c-30.998-84.155-74.955-154.823-106.372-199.287c-34.048-48.188-61.112-76.836-61.381-77.12
		c-0.38-0.4-0.364-1.033,0.037-1.414c0.399-0.38,1.033-0.364,1.414,0.037c0.27,0.284,27.414,29.014,61.541,77.309
		c31.494,44.569,75.56,115.408,106.639,199.784c0.191,0.519-0.075,1.093-0.593,1.284
		C1256.894,1861.54,1256.777,1861.56,1256.663,1861.56z"/>
	<path style="clip-path:url(#XMLID_00000176724911891772560930000002262043726976330923_);fill:#D4DFFF;" d="M1210.458,1863.952
		c-0.333,0-0.658-0.166-0.848-0.469c-20.813-33.171-242.192-233.212-244.426-235.229c-0.41-0.37-0.442-1.002-0.072-1.412
		c0.369-0.41,1.002-0.443,1.412-0.072c9.129,8.242,223.82,202.244,244.78,235.65c0.293,0.468,0.152,1.085-0.316,1.378
		C1210.823,1863.903,1210.64,1863.952,1210.458,1863.952z"/>
	<path style="clip-path:url(#XMLID_00000176724911891772560930000002262043726976330923_);fill:#D4DFFF;" d="M1207.038,1859.203
		c-0.064,0-0.128-0.006-0.193-0.019c-56.188-11.028-239.604-105.806-241.45-106.762c-0.49-0.254-0.682-0.857-0.428-1.348
		c0.255-0.491,0.858-0.682,1.348-0.428c1.843,0.954,185.005,95.602,240.915,106.574c0.542,0.106,0.896,0.632,0.789,1.174
		C1207.924,1858.873,1207.506,1859.203,1207.038,1859.203z"/>
</g>
<g>
	<defs>
		<path id="XMLID_357_" d="M1641.339,1847.727c0,0-31.257-140.618,193.548-335.565c0,0-28.484,198.406-91.094,279.92
			c0,0,5.692-77.859,149.412-181.735c0,0-8.538,146.596-106.723,206.346s-14.23,4.091-14.23,4.091s75.417-83.102,160.795-114.041
			c0,0-66.936,128.257-146.594,141.864L1641.339,1847.727z"/>
	</defs>
	<use xlink:href="#XMLID_357_"  style="overflow:visible;fill:#6880E4;"/>
	<clipPath id="XMLID_00000155133866383950528590000012004467126486885528_">
		<use xlink:href="#XMLID_357_"  style="overflow:visible;"/>
	</clipPath>
	<path style="clip-path:url(#XMLID_00000155133866383950528590000012004467126486885528_);fill:#D4DFFF;" d="M1671.096,1866.042
		c-0.126,0-0.254-0.023-0.377-0.074c-0.512-0.208-0.758-0.791-0.549-1.303c1.218-2.992,122.323-299.802,163.929-353.118
		c0.339-0.436,0.967-0.514,1.403-0.173c0.436,0.34,0.513,0.968,0.173,1.403c-41.436,53.1-162.436,349.652-163.653,352.642
		C1671.864,1865.808,1671.49,1866.042,1671.096,1866.042z"/>
	<path style="clip-path:url(#XMLID_00000155133866383950528590000012004467126486885528_);fill:#D4DFFF;" d="M1718.036,1854.202
		c-0.307,0-0.608-0.14-0.805-0.405c-0.329-0.443-0.235-1.07,0.209-1.398c36.532-27.034,173.542-240.438,174.922-242.592
		c0.297-0.465,0.917-0.601,1.382-0.302c0.465,0.298,0.6,0.916,0.302,1.382c-0.345,0.538-34.972,54.518-73.687,111.156
		c-52.025,76.111-86.252,120.51-101.729,131.963C1718.451,1854.139,1718.242,1854.202,1718.036,1854.202z"/>
	<path style="clip-path:url(#XMLID_00000155133866383950528590000012004467126486885528_);fill:#D4DFFF;" d="M1751.677,1854.307
		c-0.388,0-0.756-0.226-0.919-0.604c-0.219-0.507,0.015-1.096,0.521-1.314c17.725-7.653,54.644-35.378,106.766-80.175
		c39.427-33.885,73.978-65.886,74.322-66.205c0.404-0.377,1.037-0.353,1.413,0.054c0.375,0.405,0.352,1.037-0.054,1.413
		c-0.345,0.319-34.919,32.342-74.373,66.251c-53.022,45.571-89.117,72.655-107.281,80.498
		C1751.943,1854.28,1751.809,1854.307,1751.677,1854.307z"/>
</g>
<g>
	<g>
		<defs>
			<path id="XMLID_356_" d="M1734.223,964.125h-849.67c0,0,15.832,91.476,14.073,109.067
				c-1.759,17.592-162.464,277.903-110.344,269.619c108.311-17.215,126.177-16.301,126.177-16.301s-38.701,211.098,0,233.967
				c38.701,22.869,302.574-12.314,302.574-12.314l-34.972,299.578h509.943l-41.951-347.797
				c-9.057-75.09-1.878-151.246,21.086-223.31C1702.803,1177.266,1742.968,1032.994,1734.223,964.125z"/>
		</defs>
		<use xlink:href="#XMLID_356_"  style="overflow:visible;fill:#D4DFFF;"/>
		<clipPath id="XMLID_00000052097261814309502860000011884317923851190708_">
			<use xlink:href="#XMLID_356_"  style="overflow:visible;"/>
		</clipPath>
		<path style="opacity:0.3;clip-path:url(#XMLID_00000052097261814309502860000011884317923851190708_);fill:#6880E4;" d="
			M898.121,1514.142c0,0,15.206,34.556,105.398,11.325s342.944-116.156,344.34-88.825c1.396,27.331-156.762,333.686-156.762,333.686
			s9.204-191.565-0.361-195.665s-262.376,54.662-286.974,10.932S898.121,1514.142,898.121,1514.142"/>
		<path style="opacity:0.3;clip-path:url(#XMLID_00000052097261814309502860000011884317923851190708_);fill:#6880E4;" d="
			M781.349,1341.682c0,0-0.858-11.633,21.096-24.074c21.954-12.441,128.797-6.586,128.797,0.732s-31.91,123.149-31.166,115.116
			s8.48-89.503,1.162-92.43C893.92,1338.099,775.815,1353.597,781.349,1341.682"/>
		<path style="opacity:0.3;clip-path:url(#XMLID_00000052097261814309502860000011884317923851190708_);fill:#6880E4;" d="
			M1734.223,964.125c0,0-134.732,296.247-138.123,423.415c-3.391,127.168,111.908,335.756,111.908,335.756
			s-40.694-257.759-30.52-325.582c10.173-67.823,91.561-433.525,91.561-433.525L1734.223,964.125"/>
		<path style="opacity:0.3;clip-path:url(#XMLID_00000052097261814309502860000011884317923851190708_);fill:#6880E4;" d="
			M946.123,954.747c0,0,57.728,106.116,130.294,119.801c72.567,13.685,215.731-110.359,215.731-110.359L946.123,954.747z"/>
	</g>
	<g>
		<defs>
			<path id="XMLID_355_" d="M1912.852,1047.053l-436.617-670.578c0,0,289.617-254.095,579.54,119.656
				C2325.62,844,1912.852,1047.053,1912.852,1047.053z"/>
		</defs>
		<use xlink:href="#XMLID_355_"  style="overflow:visible;fill:#D4DFFF;"/>
		<clipPath id="XMLID_00000079488391388661136210000009672452169279256245_">
			<use xlink:href="#XMLID_355_"  style="overflow:visible;"/>
		</clipPath>
		<path style="opacity:0.3;clip-path:url(#XMLID_00000079488391388661136210000009672452169279256245_);fill:#6880E4;" d="
			M1735.44,883.151c0,0,220.977,11.072,281.402-91.185c60.425-102.257,26.302-311.723,26.302-311.723s116.626,99.074,142.19,228.057
			c25.564,128.984-177.788,356.557-257.967,377.564C1927.367,1085.865,1781.726,953.42,1735.44,883.151z"/>
	</g>
	<g>
		<path style="fill:#FE8E9C;" d="M2303.216,1794.295c0,0-1.744-15.733-1.861-30.035c-0.116-14.302,0-34.967,0-34.967l-62.944,1.253
			c0,0,8.398,47.042,8.398,49.465s-13.917,12.071-13.917,12.071s22.071,19.955,32.803,19.263
			C2276.428,1810.653,2303.216,1794.295,2303.216,1794.295z"/>
		<path style="fill:#1C056D;" d="M2303.216,1794.295l8.174,41.637c0.588,6.33-4.394,11.796-10.751,11.796h-161.428
			c0,0-0.705-9.157,3.522-19.018c4.226-9.861,86.637-33.105,90.159-36.627c0,0,27.492,9.295,38.589,9.295
			S2303.216,1794.295,2303.216,1794.295z"/>
		<path style="fill:#FE8E9C;" d="M2167.898,1795.173c0,0-1.744-15.733-1.861-30.034s0-34.967,0-34.967l-62.944,1.253
			c0,0,8.398,47.042,8.398,49.465s-13.917,12.071-13.917,12.071s22.071,19.956,32.804,19.263
			C2141.11,1811.531,2167.898,1795.173,2167.898,1795.173z"/>
		<g>
			<path style="fill:#1C056D;" d="M2255.808,1268.178c0,0,71.637,447.529,63.26,459.257c-8.377,11.728-95.497,11.728-95.497,11.728
				s-75.474-321.674-76.271-385.339C2146.503,1290.159,2255.808,1268.178,2255.808,1268.178z"/>
			<g>
				<defs>
					<path id="XMLID_354_" d="M2255.808,1104.644c0,0,42.793,50.162,0,163.534c-42.793,113.372-66.565,474.276-81.194,477.597
						c-14.629,3.321-83.701,3.993-87.565,0c-3.864-3.993-11.179-331.31-9.35-371.539c1.829-40.229,25.6-269.592,25.6-269.592
						H2255.808z"/>
				</defs>
				<use xlink:href="#XMLID_354_"  style="overflow:visible;fill:#1B3D9E;"/>
				<clipPath id="XMLID_00000052819611997171285250000000311137291079691710_">
					<use xlink:href="#XMLID_354_"  style="overflow:visible;"/>
				</clipPath>
				<path style="clip-path:url(#XMLID_00000052819611997171285250000000311137291079691710_);fill:#1C056D;" d="M2128.612,1755.577
					c-0.025,0-0.051,0-0.076-0.001c-1.289-0.042-2.3-1.12-2.259-2.409c0.101-3.088,10.115-309.555,20.574-377.177
					c10.436-67.472,39.491-271.654,39.784-273.709c0.182-1.276,1.357-2.158,2.641-1.982c1.276,0.182,2.164,1.363,1.982,2.641
					c-0.292,2.055-29.352,206.266-39.792,273.764c-10.416,67.346-20.422,373.529-20.521,376.614
					C2130.904,1754.581,2129.867,1755.577,2128.612,1755.577z"/>
			</g>
			<path style="fill:#1C056D;" d="M2116.002,1154.424c0,0,9.578,54.804,47.769,69.731l2.997-7.852c0,0-38.471-28.742-41.315-66.533
				L2116.002,1154.424z"/>
			<path style="fill:#1C056D;" d="M2080.763,1729.084c-0.136-1.937,1.344-3.598,3.283-3.688c18.051-0.837,99.601-4.368,99.925,0.167
				c0.364,5.099-0.364,20.792-4.006,22.961c-3.642,2.169-41.884,4.719-51.353,4.719c-9.469,0-43.341-1.424-45.162-4.719
				C2082.115,1746.109,2081.172,1734.899,2080.763,1729.084z"/>
			<path style="fill:#1C056D;" d="M2210.151,1724.399c-0.373-1.907,1.116-3.748,3.303-4.087
				c20.358-3.156,112.359-17.164,113.238-12.7c0.989,5.019,1.935,20.706-1.947,23.33c-3.882,2.624-46.923,10.081-57.653,11.3
				c-10.729,1.219-49.268,4.165-51.703,1.126C2213.606,1741.142,2211.271,1730.125,2210.151,1724.399z"/>
		</g>
		<g>
			<g>
				<defs>
					<path id="XMLID_353_" d="M2248.79,604.784c-7.539-24.824-85.136-56.967-98.005-24.922c0,0,2.997,49.435-15.501,53.78
						c-18.498,4.345-42.127,0.99-33.766,8.542c8.361,7.551,26.823,9.68,27.773,15.801c0.95,6.12-12.087,36.76,2.463,42.614
						c5.618,2.26,12.375,1.805,24.785,1.557c-3.514,18.376-10.752,56.899-10.965,63.478c-0.281,8.697,63.282,9.368,75.221,2.248
						c11.938-7.12-17.803-74.509-17.803-74.509C2210.542,685.012,2256.329,629.607,2248.79,604.784z"/>
				</defs>
				<use xlink:href="#XMLID_353_"  style="overflow:visible;fill:#FE8E9C;"/>
				<clipPath id="XMLID_00000160182219327361727580000010277636046185734287_">
					<use xlink:href="#XMLID_353_"  style="overflow:visible;"/>
				</clipPath>
				<path style="clip-path:url(#XMLID_00000160182219327361727580000010277636046185734287_);fill:#E57492;" d="M2156.538,702.156
					c0,0,13.422-0.421,22.714-6.66c0,0-11.345,20.769-28.284,19.223C2150.968,714.719,2151.126,704.399,2156.538,702.156"/>
				<path style="clip-path:url(#XMLID_00000160182219327361727580000010277636046185734287_);fill:#E57492;" d="M2150.839,600.849
					c0,0,46.242,18.867,69.751,6.001c23.509-12.866-66.343-27.292-66.343-27.292L2150.839,600.849z"/>
				<path style="clip-path:url(#XMLID_00000160182219327361727580000010277636046185734287_);fill:#FFFFFF;" d="M2126.271,667.524
					c0,0,18.919,1.526,25.939-2.848c0,0-14.097,18.173-28.53,15.852C2123.68,680.528,2123.764,672.122,2126.271,667.524z"/>
			</g>
			<path style="fill:#1B3D9E;" d="M2288.976,608.498c0.047-39.522-56.154-49.662-56.154-49.662s-17.298-28.409-66.987-26.215
				c-24.848,1.097-16.626,6.105-2.194,10.837c-14.679-1.631-30.892-0.204-42.075,10.064c-17.656,16.21,8.346,13.81,26.006,10.802
				c-0.19,0.486-0.367,0.974-0.534,1.463c-13.739,4.687-31.552,12.896-26.699,22.859c4.055,8.325,18.253,6.949,30.735,3.805
				c10.119,5.94,45.841,10.476,45.841,10.476s-14.971,36.703-14.879,40.396c0.092,3.693,9.235-16.055,18.805-6.427
				c3.172,3.19-1.623,19.989-7.849,21.949c-6.518,2.052-12.1-2.989-12.1-2.989s3.767,34.234,22.1,37.518
				c13.005,2.33,41.446-23.706,56.5-52.291c5.109,7.219,10.312,10.384,12.137-2.476c1.374-9.681-0.163-17.982-2.77-24.706
				c0.047-0.356,0.087-0.71,0.126-1.063C2278.333,623.442,2288.949,630.609,2288.976,608.498z"/>
		</g>
		<g>
			<path style="fill:#1B3D9E;" d="M2167.898,1795.173l8.174,41.637c0.588,6.33-4.394,11.796-10.751,11.796h-161.428
				c0,0-0.704-9.157,3.522-19.018s86.637-33.105,90.159-36.627c0,0,27.492,9.295,38.589,9.295
				C2147.26,1802.255,2167.898,1795.173,2167.898,1795.173z"/>
			<path style="fill:#1C056D;" d="M2081.993,1798.987c0,0,7.552,5.601,7.991,9.538c0.276,2.474-1.791,2.86-3.365,2.806
				c-0.974-0.033-1.901-0.415-2.614-1.079l-9.402-8.768C2074.603,1801.484,2077.006,1797.74,2081.993,1798.987z"/>
			<path style="fill:#1C056D;" d="M2065.032,1804.344c0,0,7.552,5.601,7.991,9.538c0.276,2.474-1.791,2.86-3.365,2.806
				c-0.974-0.034-1.901-0.415-2.614-1.08l-9.402-8.768C2057.642,1806.84,2060.045,1803.096,2065.032,1804.344z"/>
			<path style="fill:#1C056D;" d="M2049.626,1810.645c0,0,7.552,5.601,7.991,9.538c0.276,2.474-1.791,2.86-3.365,2.806
				c-0.974-0.034-1.901-0.415-2.614-1.08l-9.402-8.768C2042.236,1813.142,2044.639,1809.397,2049.626,1810.645z"/>
			<path style="fill:#1C056D;" d="M2033.111,1816.947c0,0,7.552,5.601,7.991,9.538c0.276,2.474-1.791,2.86-3.365,2.806
				c-0.974-0.034-1.901-0.415-2.614-1.08l-9.402-8.768C2025.721,1819.444,2028.124,1815.699,2033.111,1816.947z"/>
		</g>
		<g>
			<defs>
				<path id="XMLID_352_" d="M1857.193,906.708c0,0-20.769-9.216-21.906-11.111c-1.137-1.895-11.747-46.609-17.431-49.641
					c-5.684-3.031,3.031,29.557,0,32.21c-3.031,2.653-32.1-26.316-32.1-26.316s0,38.388,10.501,50.947
					c6.004,7.18,42.234,36.692,42.234,36.692L1857.193,906.708z"/>
			</defs>
			<use xlink:href="#XMLID_352_"  style="overflow:visible;fill:#FE8E9C;"/>
			<clipPath id="XMLID_00000011723366322736060210000007032077421113485459_">
				<use xlink:href="#XMLID_352_"  style="overflow:visible;"/>
			</clipPath>
			<path style="clip-path:url(#XMLID_00000011723366322736060210000007032077421113485459_);fill:#E57492;" d="M1784.998,858.517
				c0.956,0.306,12.154,19.216,13.796,24.964c1.642,5.748-13.96-18.559-14.125-20.366
				C1784.506,861.309,1784.998,858.517,1784.998,858.517z"/>
			<path style="clip-path:url(#XMLID_00000011723366322736060210000007032077421113485459_);fill:#E57492;" d="M1785.755,878.659
				c0,0,13.013,19.843,12.608,20.855c-0.405,1.012-14.578-12.351-13.971-15.591C1785,880.684,1785.755,878.659,1785.755,878.659z"/>
		</g>
		<g>
			<path style="fill:#FC476A;" d="M2276.828,835.994c-4.409-33.381-53.22-76.849-53.22-76.849
				c-14.8,15.737-78.092,7.258-78.092,7.258s-75.351,107.259-113.161,210.483c0,0-60.265-47.673-173.85-74.038l-23.619,41.398
				c0,0,171.512,154.725,226.565,137.681c12.646-3.915,27.011-14.79,41.301-29.184c-3.442,34.335-5.397,62.436-2.968,68.568
				c6.239,15.746,73.75-3.149,117.839-6.928c44.089-3.779,51.647-0.63,37.161-31.145
				C2240.297,1052.723,2281.237,869.376,2276.828,835.994z"/>
			<path style="fill:#D40221;" d="M2102.752,1052.743c0,0,78.983-96.007,92.042-140.781c0,0-43.487,156.807-94.988,173.904
				L2102.752,1052.743z"/>
		</g>
	</g>
	<g>
		<g>
			<defs>
				<path id="XMLID_351_" d="M1216.071,781.127c0,0,108.871,80.968,127.02,76.948c18.148-4.02,106.71-132.767,106.71-132.767
					l40.947,26.677c0,0-70.726,195.144-106.71,201.632c-35.984,6.489-118.224-17.088-118.224-17.088L1216.071,781.127z"/>
			</defs>
			<use xlink:href="#XMLID_351_"  style="overflow:visible;fill:#FC476A;"/>
			<clipPath id="XMLID_00000000914674983804257950000006769464959588669358_">
				<use xlink:href="#XMLID_351_"  style="overflow:visible;"/>
			</clipPath>
			<path style="clip-path:url(#XMLID_00000000914674983804257950000006769464959588669358_);fill:#D40221;" d="M1216.071,781.127
				c0,0,103.398,112.19,116.26,173.62l-84.224-9.932C1248.107,944.815,1206.025,807.876,1216.071,781.127"/>
			<path style="clip-path:url(#XMLID_00000000914674983804257950000006769464959588669358_);fill:#D40221;" d="M1483.143,743.562
				c0,0-48.468,51.309-62.674,82.609c0,0,11.302,15.263,5.988,32.535c-5.314,17.272-11.957,17.207-11.957,17.207
				s11.957,26.731-21.7,33.105c0,0-0.443,26.505-41.186,27.511c-40.743,1.006,0,0,0,0l-3.755-57.29l98.136-148.443
				C1445.996,730.795,1474.729,729.834,1483.143,743.562z"/>
		</g>
		<path style="fill:#FE8E9C;" d="M1487.173,749.656c0,0,14.404-22.191,16.526-24.349c2.122-2.157,29.3-28.659,27.845-30.533
			c-5.076-6.541-29.967,18.564-29.967,18.564l-28.824,26.924L1487.173,749.656z"/>
		<path style="fill:#FFFFFF;" d="M1449.801,725.307c0,0,44.711,24.39,44.711,27.563c0,3.173-5.996,19.802-9.169,18.719
			c-3.173-1.083-47.345-25.588-47.056-30.781S1449.801,725.307,1449.801,725.307z"/>
		<g>
			<defs>
				<path id="XMLID_350_" d="M1048.553,721.971c0,0-94.002,78.7-97.172,123.851c-3.17,45.15,48.586,118.367,48.586,118.367h292.182
					c0,0-47.549-155.015-76.079-183.062c-28.529-28.047-90.827-49.228-90.827-49.228L1048.553,721.971z"/>
			</defs>
			<use xlink:href="#XMLID_350_"  style="overflow:visible;fill:#FC476A;"/>
			<clipPath id="XMLID_00000089560844506124671440000006051576552726563473_">
				<use xlink:href="#XMLID_350_"  style="overflow:visible;"/>
			</clipPath>
			<polyline style="clip-path:url(#XMLID_00000089560844506124671440000006051576552726563473_);fill:#D40221;" points="
				1280.829,929.11 1233.908,967.562 1296.112,966.4 1280.829,929.11 			"/>
		</g>
		<g>
			<g>
				<defs>
					<path id="XMLID_349_" d="M1139.517,506.938c7.568-1.263,15.566-0.297,22.409,3.174c6.842,3.471,12.439,9.509,14.937,16.764
						c4.044,11.747-0.086,25.348,4.923,36.717c3.075,6.979,9.214,12.155,12.892,18.835c2.767,5.027,4.059,10.854,3.674,16.58
						c-0.938,13.945-11.215,25.356-21.763,34.525c-3.42-7.094-9.169-12.742-14.721-18.327
						c-17.255-17.357-34.171-36.428-41.09-59.904c-2.306-7.823-3.345-16.261-1.837-24.337c0.733-3.927,2.079-7.907,4.277-11.269
						c0.873-1.336,1.197-2.844,1.985-4.23c0.834-1.466,1.98-2.735,3.28-3.803C1131.596,509.099,1135.569,507.597,1139.517,506.938z"
						/>
				</defs>
				<use xlink:href="#XMLID_349_"  style="overflow:visible;fill:#1B3D9E;"/>
				<clipPath id="XMLID_00000094582972261692671800000013689577301346221217_">
					<use xlink:href="#XMLID_349_"  style="overflow:visible;"/>
				</clipPath>
				<path style="clip-path:url(#XMLID_00000094582972261692671800000013689577301346221217_);fill:#1C056D;" d="M1195.64,630.196
					c0,0-15.756-57.157-26.819-64.485c-11.063-7.328,4.973,72.387,7.297,71.69C1178.442,636.704,1190.759,636.239,1195.64,630.196z"
					/>
			</g>
			<g>
				<g>
					<defs>
						<path id="XMLID_348_" d="M1072.941,561.93c8.851-10.428,41.187-21.856,67.284-16.981
							c14.712,2.748,26.203,14.308,29.382,28.933c7.194,33.101,21.488,111.215-2.059,118.364
							c-10.484,3.183-22.82,0.691-34.669-4.473c-2.396,20.148-11.937,66.021-13.662,72.157c-2.425,8.623-59.517-20.86-69.384-31.222
							c-6.415-6.737,37.059-78.206,37.059-78.206C1081.273,636.868,1060.627,576.439,1072.941,561.93z"/>
					</defs>
					<use xlink:href="#XMLID_348_"  style="overflow:visible;fill:#FE8E9C;"/>
					<clipPath id="XMLID_00000093883855338322954350000014764764037017654186_">
						<use xlink:href="#XMLID_348_"  style="overflow:visible;"/>
					</clipPath>
					<path style="clip-path:url(#XMLID_00000093883855338322954350000014764764037017654186_);fill:#E57492;" d="M1132.879,687.773
						c0,0-15.52-10.588-28.344-23.124c0,0,0.387,56.097,26.31,60.658L1132.879,687.773"/>
					<path style="clip-path:url(#XMLID_00000093883855338322954350000014764764037017654186_);fill:#E57492;" d="M1165.548,590.334
						c-4.715,3.717-11.064,5.706-16.865,4.157c-1.457-0.389-2.848-0.987-4.233-1.582c-0.743-0.319-1.51-0.656-2.05-1.256
						c-0.541-0.601-0.788-1.546-0.356-2.229c-5.961,5.002-14.309,7.019-21.896,5.29c-7.111,5.76-14.643,12.163-16.808,21.055
						c-2.295-6.816-1.471-14.423,1.225-21.09c2.696-6.668,7.149-12.491,12.086-17.721c2.344-2.483,4.829-4.869,7.703-6.712
						c6.42-4.117,14.296-5.236,21.917-5.523c5.772-0.217,11.641-0.002,17.159,1.706c4.34,1.343,8.709,3.718,11.674,7.235
						c0.571,0.678,0.997,1.467,0.831,2.375c-0.167,0.91-0.744,1.736-1.187,2.529c-1.154,2.066-2.301,4.108-3.71,6.016
						C1169.458,586.72,1167.637,588.687,1165.548,590.334z"/>
				</g>
				<path style="fill:#E57492;" d="M1155.328,603.638c0,0,16.737,27.085,13.2,31.467s-12.466-6.156-15.195-5.464
					s-4.081,5.048-0.721,5.552c3.36,0.504,16.41,6.939,17.763,0.757C1171.727,629.767,1169.277,625.097,1155.328,603.638z"/>
				<path style="fill:#FFFFFF;" d="M1175.439,651.153c0,0-8.799,8.8-21.899-1.237c0,0,0.798,8.537,9.805,9.904
					C1175.219,661.622,1175.439,651.153,1175.439,651.153z"/>
			</g>
			<path style="fill:#1B3D9E;" d="M1048.553,538.977c10.957-7.125,26.912-17.666,44.121-22.96c-0.554-0.249-1.103-0.513-1.639-0.806
				c-5.51-3.017-9.653-8.461-11.003-14.596c-1.351-6.135,0.143-12.854,4.038-17.784c2.886-3.654,6.926-6.252,11.186-8.131
				c4.059-1.79,8.42-2.992,12.854-3.105c9.107-0.234,18.253,4.511,23.062,12.249c4.809,7.737,4.96,18.21,0.133,25.936
				c-1.101,1.762-2.494,3.401-4.229,4.567c-0.182,0.122-0.361,0.209-0.54,0.309c7.409,2.182,14.605,6.353,21.29,13.211
				c32.315,33.152,20.994,37.845,20.994,37.845s3.806,17.654-17.856,20.491c-13.546,1.774-9.578-3.364-4.703-7.463
				c-7.783,5.544-20.849,14.195-26.618,14.195c-8.489,0,5.562-16.685,5.562-16.685s-26.638,26.345-23.711,38.347
				c0,0-4.098-17.83-10.831-15.794c-6.733,2.036-9.075,13.452-5.854,20.771c3.22,7.318,17.856,6.147,17.856,6.147l-17.814,27.806
				c0,0-19.081,7.381-36.296-19.834C1031.338,606.478,1025.827,553.755,1048.553,538.977z"/>
			<path style="fill:#1C056D;" d="M1131.305,509.779c0,0-11.223,13.135-38.631,6.238l-13.25,5.111
				C1079.423,521.128,1113.818,541.581,1131.305,509.779z"/>
			<g>
				<path style="fill:#FFFFFF;" d="M1112.7,761.161c0,0-1.291,43.417-20.528,35.873c-19.237-7.544-72.526-48.282-43.618-75.064
					c0,0,6.876,5.153,11.026,7.794C1063.728,732.405,1112.7,761.161,1112.7,761.161z"/>
				<path style="fill:#FFFFFF;" d="M1119.217,759.93c0,0,14.361,24.669,21.681,20.781c7.32-3.889,4.013-38.081,2.12-39.321
					c-1.893-1.24-11.008-9.351-17.773-9.491L1119.217,759.93z"/>
			</g>
		</g>
		<g>
			<g>
				<path style="fill:#1C056D;" d="M1292.039,879.239c0,0-21.677,36.488,36.986,55.512c0,0,45.76,12.864,59.846-30.595
					L1292.039,879.239z"/>
				<g>
					<defs>
						<path id="XMLID_347_" d="M1507.538,414.33c0,0-151.555-75.463-217.025,68.721c-68.997,151.952,29.149,217.896,22.656,321.993
							l91.208,24.009c0,0,22.807-50.096,86.596-102.703C1568.73,662.224,1632.495,491.19,1507.538,414.33z"/>
					</defs>
					<use xlink:href="#XMLID_347_"  style="overflow:visible;fill:#F9C438;"/>
					<clipPath id="XMLID_00000181807168291865112470000006430986063684012172_">
						<use xlink:href="#XMLID_347_"  style="overflow:visible;"/>
					</clipPath>
					<path style="clip-path:url(#XMLID_00000181807168291865112470000006430986063684012172_);fill:#F6AB36;" d="M1272.173,657.25
						c0,0,65.025,95.942,102.585,102.402c37.56,6.46,115.565-21.672,115.565-21.672s-78.055,102.831-84.848,103.1
						c-6.793,0.268-95.077-22.971-97.375-26.318C1305.802,811.415,1273.519,664.459,1272.173,657.25z"/>
				</g>
				<g>
					<defs>
						<path id="XMLID_346_" d="M1419.011,855.156L1419.011,855.156c3.025-11.493-3.839-23.262-15.332-26.287l-92.006-24.219
							c-11.493-3.025-23.262,3.839-26.287,15.332l0,0c-1.767,6.713-0.156,13.517,3.777,18.621
							c-5.936,2.506-10.689,7.635-12.456,14.348c-3.025,11.493,3.839,23.262,15.332,26.287l92.006,24.219
							c11.492,3.025,23.262-3.839,26.287-15.331c1.767-6.713,0.156-13.517-3.777-18.621
							C1412.491,866.999,1417.244,861.87,1419.011,855.156z"/>
					</defs>
					<use xlink:href="#XMLID_346_"  style="overflow:visible;fill:#D4DFFF;"/>
					<clipPath id="XMLID_00000011007501049360436760000007649554115079261371_">
						<use xlink:href="#XMLID_346_"  style="overflow:visible;"/>
					</clipPath>
					<path style="opacity:0.3;clip-path:url(#XMLID_00000011007501049360436760000007649554115079261371_);fill:#6880E4;" d="
						M1282.309,822.916c0,0,12.798,8.901,29.667,14.507c16.869,5.605,99.612,17.859,107.035,17.734s0,0,0,0
						s-0.916,12.342-12.456,14.348c-11.539,2.007,0,0,0,0s7.406,5.953,5.011,13.934c-2.395,7.981,0,0,0,0
						s-86.162-21.807-88.957-22.252c-2.795-0.445-50.048-6.769-50.048-6.769s5.317-18.786,10.96-17.301
						C1283.521,837.118,1279.231,825.851,1282.309,822.916z"/>
				</g>
			</g>
			<g>
				<path style="fill:#FFFFFF;" d="M1407.078,629.088c-26.774-7.048-42.822-34.564-35.774-61.338s34.564-42.822,61.338-35.774
					c26.774,7.048,42.822,34.564,35.774,61.338C1461.368,620.087,1433.852,636.136,1407.078,629.088z M1508.079,589.57
					l-13.229-3.482c0.802-10.521-0.629-21.031-4.214-30.955l11.816-6.892c1.487-0.867,1.99-2.777,1.122-4.264l-10.68-18.312
					c-0.867-1.487-2.776-1.99-4.264-1.122l-11.816,6.892c-6.873-8.007-15.316-14.427-24.868-18.909l3.482-13.229
					c0.438-1.665-0.556-3.37-2.221-3.809l-20.501-5.396c-1.665-0.438-3.37,0.556-3.809,2.221l-3.482,13.229
					c-10.521-0.802-21.031,0.629-30.955,4.214l-6.892-11.816c-0.867-1.487-2.776-1.99-4.264-1.122l-18.312,10.68
					c-1.487,0.867-1.99,2.776-1.122,4.264l6.892,11.816c-8.006,6.873-14.426,15.316-18.909,24.868l-13.229-3.482
					c-1.665-0.438-3.371,0.556-3.809,2.221l-5.396,20.501c-0.438,1.665,0.556,3.37,2.222,3.809l13.228,3.482
					c-0.802,10.521,0.629,21.031,4.214,30.955l-11.816,6.892c-1.487,0.867-1.99,2.777-1.122,4.264l10.68,18.312
					c0.867,1.487,2.777,1.99,4.264,1.122l11.816-6.892c6.873,8.007,15.316,14.426,24.868,18.909l-3.482,13.228
					c-0.438,1.665,0.556,3.37,2.221,3.809l20.501,5.396c1.665,0.438,3.37-0.556,3.809-2.221l3.482-13.228
					c10.521,0.802,21.031-0.629,30.955-4.214l6.892,11.816c0.868,1.487,2.776,1.99,4.264,1.122l18.312-10.68
					c1.487-0.867,1.99-2.777,1.122-4.264l-6.892-11.816c8.006-6.873,14.426-15.316,18.909-24.868l13.229,3.482
					c1.665,0.438,3.37-0.556,3.809-2.221l5.396-20.501C1510.739,591.713,1509.745,590.008,1508.079,589.57z"/>
			</g>
		</g>
		<path style="fill:#FC476A;" d="M999.967,964.189c0,0,39.241,85.846,112.733,71.912c73.491-13.933,207.082-142.121,207.082-142.121
			l-15.157-50.9c0,0-174.972,77.374-182.93,69.014c-7.958-8.36-53.938-69.014-53.938-69.014S979.55,920.143,999.967,964.189z"/>
		<path style="fill:#D40221;" d="M1257.428,863.484c0,0-110.574,47.443-135.733,48.609c-25.159,1.166-52.521-58.04-52.521-58.04
			s34.416,45.915,50.043,43.57c15.627-2.345,132.885-47.685,132.885-47.685L1257.428,863.484z"/>
		<path style="fill:#FE8E9C;" d="M1307.349,852.227c0,0,10.206-5.861,12.433-7.233c2.227-1.372,26.354-31.272,30.485-30.185
			c8.872,2.335-13.444,28.002-3.568,28.271c0,0,57.062-8.237,57.337-4.67c0.274,3.566-22.221,10.713-42.797,15.644
			c0,0,50.583-7.401,58.486-4.116c7.904,3.286-49.707,18.1-52.177,18.1c-2.469,0,41.974-3.292,45.266,0
			c3.292,3.292-50.204,11.2-50.204,11.2s24.813,8.826,26.26,11.57s-41.898-4.938-49.03-4.938c-7.133,0-21.905,1.908-21.905,1.908
			L1307.349,852.227z"/>
		<path style="fill:#FFFFFF;" d="M1304.625,843.08c0,0,17.526,50.797,17.007,53.567c-0.52,2.771-16.637,14.562-17.693,12.013
			c-1.056-2.55-18.155-53.892-17.697-57.547C1286.701,847.458,1302.682,841.458,1304.625,843.08z"/>
	</g>
</g>
<path style="fill:#1C056D;" d="M2725.052,1852.605H407.65c-2.209,0-4-1.791-4-4s1.791-4,4-4h2317.401c2.209,0,4,1.791,4,4
	S2727.261,1852.605,2725.052,1852.605z"/>
<g>
	<path style="fill:#D4DFFF;" d="M2621.244,285.661c-6.452-12.905-302.572-2.846-306.485,0c-17.744,12.905-1.613,172.6,0,179.052
		c0.381,1.523,16.939,2.506,42.181,3.078c-11.951,32.353-27.023,73.735-24.198,75.572c8.419,5.475,47.304-43.051,78.086-74.957
		c86.872,0.312,202.407-1.69,210.417-3.693C2634.149,461.487,2627.696,298.566,2621.244,285.661z"/>
	<g>
		<path style="fill:#6880E4;" d="M2383.771,374.109c0.166,8.097-6.264,14.796-14.361,14.962
			c-8.097,0.166-14.796-6.264-14.962-14.361c-0.166-8.097,6.264-14.796,14.361-14.962
			C2376.907,359.582,2383.606,366.012,2383.771,374.109z"/>
		
			<ellipse transform="matrix(0.7071 -0.7071 0.7071 0.7071 450.9413 1834.5823)" style="fill:#6880E4;" cx="2440.007" cy="372.957" rx="14.665" ry="14.665"/>
		
			<ellipse transform="matrix(0.5466 -0.8374 0.8374 0.5466 827.4509 2271.147)" style="fill:#6880E4;" cx="2510.905" cy="371.505" rx="14.665" ry="14.665"/>
		
			<ellipse transform="matrix(0.7071 -0.7071 0.7071 0.7071 494.5259 1933.9954)" style="fill:#6880E4;" cx="2581.802" cy="370.052" rx="14.665" ry="14.665"/>
	</g>
</g>
<g>
	<path style="fill:#F9C438;" d="M1388.083,357.623c0,0-14.169-122.459,0-177.111
		C1388.083,180.513,1397.191,327.262,1388.083,357.623z"/>
	<path style="fill:#F9C438;" d="M1319.181,388.866c0,0-34.016-84.04-96.046-134.064
		C1223.135,254.802,1270.176,337.971,1319.181,388.866z"/>
	<path style="fill:#F9C438;" d="M1148.608,377.667c0,0,42.088,45.411,114.561,60.998
		C1263.169,438.665,1195.502,397.789,1148.608,377.667z"/>
	<path style="fill:#F9C438;" d="M1355.709,364.399c0,0-15.347-65.368-26.393-83.791
		C1329.316,280.609,1327.779,311.51,1355.709,364.399z"/>
	<path style="fill:#F9C438;" d="M1283.173,408.166c0,0-43.993-50.727-62.34-61.897
		C1220.833,346.269,1233.846,374.339,1283.173,408.166z"/>
	<path style="fill:#F9C438;" d="M1256.368,473.09c0,0-66.614-8.438-87.733-4.519C1168.635,468.571,1197.056,480.799,1256.368,473.09
		z"/>
</g>
</svg>
